<svg id="Group_4" data-name="Group 4" xmlns="http://www.w3.org/2000/svg" width="14.27" height="14.43" viewBox="0 0 14.27 14.43">
  <path id="Path_3" data-name="Path 3" d="M66.794,57.052c-.16.194-.31.4-.487.575-1.156,1.167-2.317,2.328-3.462,3.473-.371-.382-.725-.752-1.073-1.112.708-.708,1.482-1.471,2.251-2.24-.022-.039-.044-.072-.066-.111H55.6V56.018H64c-.83-.8-1.609-1.554-2.367-2.284l1.25-1.233c.111.127.26.315.426.481,1.007,1.012,2.019,2.019,3.025,3.036.166.166.31.365.459.548C66.794,56.731,66.794,56.891,66.794,57.052Z" transform="translate(-52.525 -49.596)" fill="white"/>
  <path id="Path_4" data-name="Path 4" d="M3.208,0V1.6H1.626V12.82H3.208V14.43H0V0Z" fill="white"/>
</svg>
